Motion_pl02
version=1
nRows=13
nColumns=43
inDegrees=yes
endheader
time	pelvis_tilt	pelvis_list	pelvis_rotation	pelvis_tx	pelvis_ty	pelvis_tz	hip_flexion_r	hip_adduction_r	hip_rotation_r	knee_angle_r	ankle_angle_r	subtalar_angle_r	mtp_angle_r	hip_flexion_l	hip_adduction_l	hip_rotation_l	knee_angle_l	ankle_angle_l	subtalar_angle_l	mtp_angle_l	lumbar_extension	lumbar_bending	lumbar_rotation	neck_flexion	neck_lateral_bending	neck_rotation	arm_flex_r	arm_add_r	arm_rot_r	elbow_flex_r	pro_sup_r	wrist_flex_r	wrist_dev_r	hand_finger_flex_r	arm_flex_l	arm_add_l	arm_rot_l	elbow_flex_l	pro_sup_l	wrist_flex_l	wrist_dev_l	hand_finger_flex_l
      2.45750000	     -1.45604619	     -4.43182285	     89.10744666	     -0.02686918	      0.81739043	      0.34686385	     45.42745332	     -6.92473653	     -3.71583228	    -72.27972511	      0.82284867	     11.83845800	     39.43496103	     43.53402483	     -4.08003960	    -10.34195952	    -70.77400222	      4.99736164	     -4.41384536	     35.55140778	    -52.31571053	      0.67363383	     -0.11974958	      3.78682267	     -0.01459174	     -2.69279320	     61.90198050	    -19.94647760	     20.40697170	     64.53577256	    109.11882138	    -28.76232572	     -2.64386507	     27.76215932	     57.78721819	    -12.70063959	      2.70506383	     73.30567439	    121.40515645	     -9.82075210	     10.53534318	     53.06529796
      2.46000000	     -1.44774026	     -4.44450255	     89.12118446	     -0.02687614	      0.81763869	      0.34684195	     45.37004246	     -6.88765500	     -3.68133039	    -72.13808438	      0.81297523	     11.83092501	     39.42400517	     43.50120131	     -4.05454355	    -10.30436102	    -70.66233676	      4.97458841	     -4.41778526	     35.54812552	    -52.23918430	      0.66056818	     -0.14463523	      3.55873391	     -0.00802597	     -2.70134192	     62.00117498	    -19.90311876	     20.53758571	     64.87178364	    108.91371896	    -28.81505992	     -2.67660413	     27.81022948	     57.90841315	    -12.66664575	      2.83719015	     73.60562034	    121.27975130	     -9.87887366	     10.50877115	     53.08729147
      2.46250000	     -1.44484163	     -4.42960873	     89.12411231	     -0.02698402	      0.81772325	      0.34676039	     45.33781225	     -6.89435194	     -3.69537745	    -72.13355496	      0.80934165	     11.81587782	     39.41349054	     43.48664617	     -4.05222243	    -10.30699320	    -70.67640037	      4.94951328	     -4.43512320	     35.54521661	    -52.20076284	      0.65504387	     -0.16314596	      3.45913457	      0.00288444	     -2.70783528	     62.12448647	    -19.94772176	     20.73763872	     65.29053539	    108.65576250	    -28.84676196	     -2.72821084	     27.88026966	     58.01719001	    -12.74649659	      3.11724165	     74.00086753	    121.12513069	     -9.91458317	     10.45034919	     53.12781031
      2.46500000	     -1.46251951	     -4.42917740	     89.15760332	     -0.02703764	      0.81796230	      0.34697012	     45.30902423	     -6.91898108	     -3.70093229	    -72.05388332	      0.82571170	     11.75759352	     39.35666598	     43.48382780	     -3.99790777	    -10.29122790	    -70.61275757	      4.88630634	     -4.52289760	     35.53759294	    -52.21075936	      0.63960033	     -0.19747557	      3.67843271	      0.04762310	     -2.71878966	     62.40165152	    -20.09329456	     21.25371795	     65.72086586	    107.13802832	    -29.21878835	     -2.56331391	     28.16271697	     58.31342406	    -12.93932521	      3.67964631	     74.26391451	    120.32217922	    -10.37429403	     10.53004203	     53.21044480
      2.46750000	     -1.45532854	     -4.40043265	     89.14448833	     -0.02721318	      0.81803609	      0.34678465	     45.26576648	     -6.91588773	     -3.68995651	    -72.06507162	      0.81214889	     11.76033641	     39.35072973	     43.43800591	     -3.99166711	    -10.28194737	    -70.62082981	      4.86624732	     -4.52024595	     35.53700104	    -52.15076234	      0.63937537	     -0.19482670	      3.39651420	      0.04257800	     -2.72283323	     62.46543692	    -20.07577539	     21.35682843	     66.05526855	    107.09846103	    -29.25340349	     -2.66220628	     28.19772106	     58.35134965	    -12.91389897	      3.81070641	     74.62805156	    120.28379665	    -10.39069484	     10.48492318	     53.24701868
      2.47000000	     -1.45053751	     -4.39956014	     89.14269254	     -0.02728525	      0.81814661	      0.34673675	     45.23609014	     -6.90812398	     -3.68573016	    -72.02135780	      0.82001584	     11.75555906	     39.34478296	     43.42401714	     -3.99056904	    -10.28172663	    -70.59674614	      4.85680778	     -4.52194840	     35.53761622	    -52.09789537	      0.62703870	     -0.21660648	      3.27968186	      0.04127069	     -2.72340044	     62.56148307	    -20.07698642	     21.51090030	     66.41320535	    107.01670723	    -29.26407330	     -2.76121597	     28.24861299	     58.44915301	    -12.96921653	      4.02866777	     74.99214518	    120.24012031	    -10.39676535	     10.42662711	     53.28742741
      2.47250000	     -1.45067103	     -4.39905122	     89.13714766	     -0.02737776	      0.81827051	      0.34669613	     45.21152238	     -6.90054772	     -3.67427500	    -71.99012633	      0.82874777	     11.74392851	     39.33831945	     43.41112710	     -3.98036709	    -10.27060167	    -70.57366942	      4.83978073	     -4.52247281	     35.53875626	    -52.05487943	      0.61321424	     -0.23798508	      3.21041560	      0.04617277	     -2.71772668	     62.67129001	    -20.08701458	     21.67312064	     66.77115082	    106.90289761	    -29.26147458	     -2.84645603	     28.30598991	     58.55591029	    -13.04735527	      4.27014508	     75.35756368	    120.19181587	    -10.40419000	     10.36459056	     53.32418526
      2.47500000	     -1.45404305	     -4.39405100	     89.13819340	     -0.02740163	      0.81838871	      0.34667916	     45.18822459	     -6.89478802	     -3.66250521	    -71.95881630	      0.83538338	     11.72746877	     39.33055075	     43.39489025	     -3.97114960	    -10.26288197	    -70.54768764	      4.81788962	     -4.52381078	     35.54097670	    -52.01729469	      0.59165781	     -0.26525167	      3.15608706	      0.05159112	     -2.70576761	     62.77965276	    -20.10337172	     21.84719040	     67.12683821	    106.75984857	    -29.24940074	     -2.91706867	     28.37129622	     58.66474247	    -13.13332954	      4.51817144	     75.72081192	    120.14219007	    -10.41899055	     10.30590211	     53.35538602
      2.47750000	     -1.45952135	     -4.38902248	     89.13062249	     -0.02748212	      0.81851657	      0.34664991	     45.16209433	     -6.89079642	     -3.64592914	    -71.92601743	      0.83861894	     11.71059477	     39.32247062	     43.37245383	     -3.95591278	    -10.25431765	    -70.51803662	      4.79540613	     -4.52567429	     35.54418195	    -51.98044022	      0.57399111	     -0.28964356	      3.09093469	      0.05894994	     -2.69145949	     62.89117385	    -20.11187378	     22.01466933	     67.47002781	    106.61840536	    -29.23107981	     -2.97523058	     28.43681712	     58.77014183	    -13.20911841	      4.74310563	     76.06277775	    120.10162496	    -10.43650911	     10.25558015	     53.37859208
      2.48000000	     -1.45749885	     -4.38196847	     89.12597909	     -0.02756039	      0.81865494	      0.34677346	     45.15586072	     -6.89157017	     -3.64736848	    -71.90989564	      0.84351178	     11.70586949	     39.32036963	     43.37000322	     -3.95082424	    -10.25530796	    -70.50706158	      4.79320662	     -4.52736801	     35.54582385	    -51.94453289	      0.56022211	     -0.29939961	      3.00256725	      0.05781178	     -2.68609025	     63.03158138	    -20.03650696	     22.07898082	     67.68377084	    106.58117411	    -29.22214115	     -3.01618415	     28.45823122	     58.93210399	    -13.16181368	      4.83421779	     76.27944339	    120.08648487	    -10.44418542	     10.21879921	     53.38416454
      2.48250000	     -1.46081563	     -4.37348471	     89.11789867	     -0.02760723	      0.81876951	      0.34656401	     45.10645617	     -6.87851316	     -3.61402642	    -71.86255363	      0.83377530	     11.68935548	     39.31075783	     43.32320051	     -3.92798137	    -10.23830795	    -70.45876691	      4.75665011	     -4.53233128	     35.54777009	    -51.89527187	      0.53644045	     -0.33346880	      2.90025176	      0.06461373	     -2.66634267	     63.07811179	    -20.11622495	     22.31106235	     68.11809674	    106.47107084	    -29.16316332	     -3.08862059	     28.54033685	     58.93887136	    -13.31356280	      5.12142498	     76.70929231	    120.06985844	    -10.42699864	     10.15706322	     53.41281699
      2.48500000	     -1.46235695	     -4.36618825	     89.11398673	     -0.02767074	      0.81890746	      0.34671633	     45.10467540	     -6.88132548	     -3.62024284	    -71.85321018	      0.83788652	     11.68502326	     39.30849641	     43.32461152	     -3.92637230	    -10.24433860	    -70.45343431	      4.75619342	     -4.53852110	     35.54952069	    -51.86874196	      0.51943366	     -0.34703306	      2.82672336	      0.06069509	     -2.65815220	     63.21987077	    -20.04867777	     22.37953334	     68.32677347	    106.43551317	    -29.14754412	     -3.12504247	     28.56524622	     59.10700503	    -13.27060092	      5.21585789	     76.92836336	    120.06005655	    -10.43113290	     10.12097801	     53.41628140
      2.48750000	     -1.47240608	     -4.35572482	     89.10045009	     -0.02775229	      0.81901525	      0.34651967	     45.05860341	     -6.87648010	     -3.59216713	    -71.81056019	      0.82201990	     11.67056809	     39.29766605	     43.27766923	     -3.90106517	    -10.23806770	    -70.40785593	      4.72292499	     -4.55870979	     35.55007205	    -51.82399537	      0.49855146	     -0.38055000	      2.74466339	      0.06343810	     -2.63221449	     63.26374218	    -20.13459408	     22.61508419	     68.75400188	    106.33396494	    -29.07773956	     -3.18897876	     28.65364134	     59.10957258	    -13.42344340	      5.50179522	     77.35112140	    120.05409184	    -10.40158689	     10.06417106	     53.44148496
